<?xml version="1.0" encoding="UTF-8"?>
<svg id="Camada_2" data-name="Camada 2" xmlns="http://www.w3.org/2000/svg" viewBox="0 0 167.06 167.06">
  <g id="Camada_1-2" data-name="Camada 1">
    <path d="M136.36,39.89c0,5.34-4.33,9.67-9.66,9.67-5.34,0-9.67-4.33-9.67-9.66,0-5.34,4.33-9.67,9.66-9.67h0c5.34,0,9.66,4.33,9.66,9.66ZM167.06,83.53v.12s-.55,35.05-.55,35.05c-.3,26.28-21.53,47.52-47.81,47.81l-35.17.55h-.12s-35.05-.55-35.05-.55c-26.28-.3-47.52-21.53-47.81-47.81l-.55-35.17v-.12s.55-35.05.55-35.05C.85,22.08,22.08.85,48.36.55l35.17-.55h.12s35.05.55,35.05.55c26.28.3,47.51,21.53,47.81,47.81l.55,35.17ZM151.51,83.53l-.55-34.92c-.2-17.87-14.64-32.3-32.5-32.5l-34.92-.55-34.92.55c-17.87.2-32.3,14.64-32.5,32.5l-.55,34.92.55,34.92c.2,17.87,14.64,32.3,32.5,32.5l34.92.55,34.92-.55c17.87-.2,32.3-14.64,32.5-32.5l.55-34.92ZM126.43,83.53c0,23.69-19.21,42.9-42.9,42.9s-42.9-19.21-42.9-42.9,19.21-42.9,42.9-42.9h0c23.68.03,42.87,19.22,42.9,42.9ZM110.87,83.53c0-15.1-12.24-27.34-27.34-27.34s-27.34,12.24-27.34,27.34,12.24,27.34,27.34,27.34h0c15.09-.02,27.32-12.25,27.34-27.34h0Z"/>
  </g>
</svg>
