<?xml version="1.0" encoding="UTF-8"?>
<svg id="Camada_2" data-name="Camada 2" xmlns="http://www.w3.org/2000/svg" viewBox="0 0 167.06 159.68">
  <g id="Camada_1-2" data-name="Camada 1">
    <path d="M2.12,51.94h35.8v107.75H2.12V51.94ZM20.26,0C8.01,0,0,8.04,0,18.6s7.77,18.62,19.79,18.62h.23c12.49,0,20.27-8.28,20.27-18.62-.23-10.56-7.78-18.6-20.03-18.6ZM125.83,49.41c-19.01,0-27.52,10.45-32.27,17.78v-15.25h-35.81c.47,10.11,0,107.75,0,107.75h35.81v-60.17c0-3.22.23-6.43,1.18-8.74,2.59-6.43,8.49-13.1,18.37-13.1,12.97,0,18.15,9.89,18.15,24.36v57.65h35.81v-61.78c0-33.09-17.66-48.49-41.23-48.49Z"/>
  </g>
</svg>
