<?xml version="1.0" encoding="UTF-8"?>
<svg id="Camada_2" data-name="Camada 2" xmlns="http://www.w3.org/2000/svg" viewBox="0 0 270.42 269.07">
  <g id="Camada_1-2" data-name="Camada 1">
    <g id="Camada_2-2" data-name="Camada 2">
      <g id="uuid-9c6f6a9a-63aa-4343-b900-81606cdb24d9" data-name="Camada 1-2">
        <path d="M44.44,196.67c11.85.14,23.57-2.5,34.22-7.69,10.45-4.95,19.69-12.14,27.04-21.07-16.58-4.8-31.21-14.73-41.79-28.37-5.25-6.8-9.4-14.38-12.29-22.47-2.97-8.26-4.46-16.97-4.43-25.74-.03-8.61,1.38-17.16,4.18-25.3L12.48,104.95c-16.65,16.74-16.65,43.78,0,60.53l31.96,31.96v-.76Z"/>
        <path d="M84.84,129.33c4.58,5.12,10.05,9.37,16.15,12.54,2.37,1.24,4.84,2.29,7.38,3.15,4.99,1.68,10.4-1,12.09-5.99.33-.98.5-2.02.5-3.06V47.27c-.03-5.43-4.46-9.81-9.89-9.78-1.1,0-2.18.2-3.21.56-2.42.83-4.78,1.82-7.06,2.97-12.36,6.27-21.98,16.87-27.04,29.77-2.58,6.53-3.89,13.5-3.86,20.53-.03,7.03,1.31,13.99,3.96,20.5,2.59,6.41,6.26,12.33,10.84,17.5"/>
        <path d="M120.88,184.99c-9.52,10.7-21.18,19.28-34.22,25.2-7.05,3.34-14.48,5.82-22.13,7.38l40.47,40.47c5.29,5.31,11.89,9.11,19.13,11.04l-3.25-84.08Z"/>
        <path d="M104.45,15.51c8.88-2.55,18.07-3.84,27.31-3.81h7.57c11.53.78,22.83,3.67,33.31,8.53l1.08.49-8.26-8.24c-16.74-16.65-43.78-16.65-60.53,0l-4.15,4.18c1.2-.42,2.46-.81,3.69-1.16"/>
        <path d="M211.81,115.54c.13-9.59-1.54-19.12-4.92-28.1-3.29-8.81-8.03-17-14.04-24.24-6.04-7.19-13.27-13.3-21.36-18.07-4.39-2.56-9.03-4.67-13.84-6.29-5.15-1.72-10.72,1.05-12.45,6.2-.33.99-.5,2.02-.51,3.07l3.34,220.37c6.62-2.04,12.64-5.67,17.53-10.57l46.24-46.32v-96.05ZM178.75,179.04c-7.51.01-13.61-6.06-13.62-13.57-.01-7.51,6.06-13.61,13.57-13.62,7.51-.01,13.61,6.06,13.62,13.57,0,0,0,.02,0,.02,0,7.5-6.07,13.58-13.57,13.6"/>
        <path d="M257.93,104.95l-32.8-32.8c.57,1.18,1.11,2.46,1.62,3.59,5.35,12.58,8.05,26.13,7.92,39.8v73.21l23.26-23.28c16.65-16.74,16.65-43.78,0-60.53"/>
      </g>
    </g>
  </g>
</svg>